<?xml version="1.0" encoding="UTF-8" standalone="no" ?>
<!DOCTYPE svg PUBLIC "-//W3C//DTD SVG 1.1//EN" "http://www.w3.org/Graphics/SVG/1.1/DTD/svg11.dtd">
<svg xmlns="http://www.w3.org/2000/svg" xmlns:xlink="http://www.w3.org/1999/xlink" version="1.1" width="1080" height="1080" viewBox="0 0 1080 1080" xml:space="preserve">
<desc>Created with Fabric.js 5.2.4</desc>
<defs>
</defs>
<rect x="0" y="0" width="100%" height="100%" fill="transparent"></rect>
<g transform="matrix(1 0 0 1 540 540)" id="57db9490-f2a1-47fc-9c58-b763543eb13b"  >
<rect style="stroke: none; stroke-width: 1; stroke-dasharray: none; stroke-linecap: butt; stroke-dashoffset: 0; stroke-linejoin: miter; stroke-miterlimit: 4; fill: rgb(255,255,255); fill-rule: nonzero; opacity: 1; visibility: hidden;" vector-effect="non-scaling-stroke"  x="-540" y="-540" rx="0" ry="0" width="1080" height="1080" />
</g>
<g transform="matrix(1 0 0 1 540 540)" id="b6d41781-16fd-4861-acf2-84e0192ce20e"  >
</g>
<g transform="matrix(1.38 0 0 1.46 812.57 519.78)" id="77174fff-63b9-40b8-acd1-81bf8366d4a0"  >
<path style="stroke: rgb(0,0,0); stroke-width: 0; stroke-dasharray: none; stroke-linecap: butt; stroke-dashoffset: 0; stroke-linejoin: miter; stroke-miterlimit: 4; fill: rgb(107,87,255); fill-rule: nonzero; opacity: 1;" vector-effect="non-scaling-stroke"  transform=" translate(-367, -343.5)" d="M 704.288 0 L 490.23 0 C 473.82 0 460.51800000000003 13.3127 460.51800000000003 29.7357 L 460.51800000000003 65.4083 L 413.86 65.4083 C 397.244 65.4083 383.76800000000003 78.8888 383.76800000000003 95.5248 L 383.76800000000003 130.817 L 337.485 130.817 C 320.656 130.817 307.01800000000003 144.471 307.01800000000003 161.30700000000002 L 307.01800000000003 196.22500000000002 L 261.10900000000004 196.22500000000002 C 244.07300000000004 196.22500000000002 230.26200000000003 210.04700000000003 230.26200000000003 227.09600000000003 L 230.26200000000003 261.64000000000004 L 184.73300000000003 261.64000000000004 C 167.49100000000004 261.64000000000004 153.51200000000003 275.63000000000005 153.51200000000003 292.88500000000005 L 153.51200000000003 327.04800000000006 L 108.35700000000003 327.04800000000006 C 90.90290000000003 327.04800000000006 76.75610000000003 341.2060000000001 76.75610000000003 358.67400000000004 L 76.75610000000003 392.463 L 31.975300000000033 392.463 C 14.314400000000031 392.463 3.197442310920451e-14 406.788 3.197442310920451e-14 424.463 L 3.197442310920451e-14 654.999 C 3.197442310920451e-14 672.674 14.314400000000031 687 31.975300000000033 687 L 262.32800000000003 687 C 279.98800000000006 687 294.30300000000005 672.674 294.30300000000005 654.999 L 294.30300000000005 618.12 L 335.98900000000003 618.12 C 353.44300000000004 618.12 367.59000000000003 603.962 367.59000000000003 586.493 L 367.59000000000003 549.2330000000001 L 409.65000000000003 549.2330000000001 C 426.89200000000005 549.2330000000001 440.87100000000004 535.243 440.87100000000004 517.988 L 440.87100000000004 480.35300000000007 L 483.31100000000004 480.35300000000007 C 500.34600000000006 480.35300000000007 514.158 466.53100000000006 514.158 449.4820000000001 L 514.158 411.4670000000001 L 556.972 411.4670000000001 C 573.8009999999999 411.4670000000001 587.439 397.8120000000001 587.439 380.9760000000001 L 587.439 342.5870000000001 L 630.627 342.5870000000001 C 647.2429999999999 342.5870000000001 660.7189999999999 329.1060000000001 660.7189999999999 312.4700000000001 L 660.7189999999999 273.7000000000001 L 704.2879999999999 273.7000000000001 C 720.6979999999999 273.7000000000001 733.9999999999999 260.3880000000001 733.9999999999999 243.9650000000001 L 733.9999999999999 29.735700000000094 C 733.9999999999999 13.312700000000095 720.6979999999999 9.237055564881302e-14 704.2879999999999 9.237055564881302e-14 z" stroke-linecap="round" />
</g>
</svg>