<svg fill="none" height="1073" viewBox="0 0 2828 1073" width="2828" xmlns="http://www.w3.org/2000/svg"><path d="m2481.32 62.54h-180.16c-13.81 0-25.01 11.2-25.01 25.01v47.13h-41.97c-14.27 0-25.83 11.57-25.83 25.83v46.31h-41.15c-14.72 0-26.65 11.93-26.65 26.65v45.48h-40.33c-15.18 0-27.48 12.3-27.48 27.48v44.66h-39.5c-15.63 0-28.3 12.67-28.3 28.3v43.84h-38.68c-16.08 0-29.12 13.04-29.12 29.12v43.01h-37.86c-16.54 0-29.95 13.41-29.95 29.95v215.73c0 16.54 13.41 29.95 29.95 29.95h215.73c16.54 0 29.95-13.41 29.95-29.95v-49.77h31.1c16.08 0 29.12-13.04 29.12-29.12v-50.59h31.93c15.63 0 28.3-12.67 28.3-28.3v-51.41h32.75c15.18 0 27.48-12.3 27.48-27.48v-52.24h33.57c14.72 0 26.65-11.93 26.65-26.65v-53.06h34.4c14.27 0 25.83-11.57 25.83-25.83v-53.88h35.22c13.81 0 25.01-11.2 25.01-25.01v-180.15c0-13.81-11.2-25.01-25.01-25.01z" fill="#21d789"/><path d="m2008.57 260.9c-49.47 2.03-98.4 29.88-158.65 90.33-70.86 71.09-146.78 134.18-225.64 187.54-79.44 53.74-161.84 97.58-244.92 130.29-84.67 33.33-170.22 55.17-254.29 64.91-.38.04-.77.08-1.15.13-86.18 9.87-171.33 7.07-253.11-8.33-70.34-13.25-138.2-35.7-203.2-67.15-4.65-2.25-9.28-4.54-13.9-6.89-15.6-7.91-31.03-16.33-46.29-25.29-54.05-31.71-105.93-69.96-155.38-114.64-136.98-123.75-254.19-295.94-348.38-511.8l-47.66 20.8c97.16 222.68 218.68 400.86 361.17 529.59 79.01 71.38 164 127.28 254.09 167.27 10.88 4.83 21.84 9.43 32.87 13.79 7.86 3.11 15.76 6.11 23.7 8.98 43.39 15.71 87.87 27.88 133.35 36.44 53.08 10 107.45 15.01 162.56 15.01 33.16 0 66.6-1.84 100.17-5.47 2.38-.26 4.76-.5 7.14-.78 88.55-10.26 178.5-33.2 267.36-68.18 86.62-34.11 172.42-79.73 255.01-135.61 81.62-55.22 160.12-120.45 233.33-193.9 65.21-65.42 101.97-74.18 123.95-75.08 20.22-.82 40.14 5.6 62.05 15.81v-22.23c0-12.29 8.07-22.69 19.19-26.2-27.07-12.39-53.65-20.56-83.36-19.33z" fill="#b5abff"/><path d="m2385.86 425.98c122.78-.12 267.78-38.32 441.9-116.3l-21.25-47.46c-96.69 43.3-185.6 74.37-264.27 92.34-56.03 12.8-108.47 19.27-156.36 19.37v51.55c0 .17 0 .33-.01.49z" fill="#6b57ff" opacity=".5"/><path d="m2354.7 425.17c10.22.55 20.61.82 31.16.81 0-.16.01-.33.01-.49v-51.55c-9.64.02-19.11-.19-28.37-.69-100.73-5.43-163.67-39.34-219.21-69.27-16.03-8.64-31.27-16.85-46.36-23.75-11.12 3.52-19.19 13.92-19.19 26.2v22.23c12.8 5.96 26.27 13.22 40.89 21.09 57.35 30.9 128.72 69.36 241.07 75.41z" fill="#07c3f2"/><path d="m294.309 67.1176h274.876c21.072 0 38.153 17.0935 38.153 38.1804v45.804h59.914c21.337 0 38.642 17.309 38.642 38.67v45.315h59.433c21.611 0 39.123 17.532 39.123 39.15v44.834h58.953c21.875 0 39.611 17.748 39.611 39.639v44.354h58.464c22.14 0 40.092 17.964 40.092 40.12v43.865h57.98c22.42 0 40.58 18.178 40.58 40.608v43.384h57.51c22.68 0 41.06 18.395 41.06 41.089v296.009c0 22.695-18.38 41.09-41.06 41.09h-295.802c-22.679 0-41.06-18.395-41.06-41.09v-47.353h-53.53c-22.414 0-40.58-18.179-40.58-40.608v-47.842h-54.009c-22.141 0-40.092-17.964-40.092-40.12v-48.323h-54.498c-21.875 0-39.611-17.748-39.611-39.639v-48.811h-54.978c-21.611 0-39.123-17.533-39.123-39.15v-49.292h-55.459c-21.337 0-38.642-17.309-38.642-38.67v-49.781h-55.947c-21.073 0-38.154-17.093-38.154-38.181v-275.071c0-21.0869 17.081-38.1804 38.154-38.1804z" fill="#6b57ff"/></svg>