<svg fill="none" height="699" viewBox="0 0 752 699" width="752" xmlns="http://www.w3.org/2000/svg"><path clip-rule="evenodd" d="m179.179.192871h-158.5967c-11.36733 0-20.58236104 9.219099-20.58236104 20.591429v158.6667c0 11.372 9.21503104 20.591 20.58236104 20.591h48.3747v41.319c0 11.611 9.4086 21.024 21.0146 21.024h47.9554v40.899c0 11.843 9.597 21.443 21.435 21.443h47.523v40.491c0 12.075 9.785 21.864 21.854 21.864h47.103v40.059c0 12.307 9.973 22.284 22.274 22.284h46.697v39.626c0 12.546 10.165 22.716 22.706 22.716h46.252v39.219c0 12.778 10.354 23.136 23.126 23.136h45.844v38.787c0 13.009 10.541 23.556 23.545 23.556h45.412v38.366c0 13.242 10.73 23.976 23.966 23.976h151.83c13.236 0 23.966-10.734 23.966-23.976v-151.897c0-13.242-10.73-23.976-23.966-23.976h-44.992v-38.787c0-13.009-10.542-23.556-23.546-23.556h-45.424v-39.206c0-12.778-10.354-23.136-23.126-23.136h-45.832v-39.639c0-12.546-10.166-22.716-22.706-22.716h-46.264v-40.059c0-12.307-9.973-22.284-22.274-22.284h-46.684v-40.478c0-12.075-9.784-21.864-21.854-21.864h-47.103v-40.911c0-11.843-9.597-21.444-21.435-21.444h-47.536v-41.3189c0-11.6111-9.408-21.0238-21.014-21.0238h-47.943v-41.751c0-11.37233-9.215-20.591429-20.582-20.591429z" fill="#21d789" fill-rule="evenodd"/></svg>