<svg fill="none" height="687" viewBox="0 0 734 687" width="734" xmlns="http://www.w3.org/2000/svg"><path d="m704.288 0h-214.058c-16.41 0-29.712 13.3127-29.712 29.7357v35.6726h-46.658c-16.616 0-30.092 13.4805-30.092 30.1165v35.2922h-46.283c-16.829 0-30.467 13.654-30.467 30.49v34.918h-45.909c-17.036 0-30.847 13.822-30.847 30.871v34.544h-45.529c-17.242 0-31.221 13.99-31.221 31.245v34.163h-45.155c-17.4541 0-31.6009 14.158-31.6009 31.626v33.789h-44.7808c-17.6609 0-31.9753 14.325-31.9753 32v230.536c0 17.675 14.3144 32.001 31.9753 32.001h230.3527c17.66 0 31.975-14.326 31.975-32.001v-36.879h41.686c17.454 0 31.601-14.158 31.601-31.627v-37.26h42.06c17.242 0 31.221-13.99 31.221-31.245v-37.635h42.44c17.035 0 30.847-13.822 30.847-30.871v-38.015h42.814c16.829 0 30.467-13.655 30.467-30.491v-38.389h43.188c16.616 0 30.092-13.481 30.092-30.117v-38.77h43.569c16.41 0 29.712-13.312 29.712-29.735v-214.2293c0-16.423-13.302-29.7357-29.712-29.7357z" fill="#6b57ff"/></svg>