<svg xmlns="http://www.w3.org/2000/svg" viewBox="0 0 64 64" class="_wt-icon-big_fcurj4_1"><path d="M56.8149 40.1851c-2.59-1.16-6.1099-2.1101-9.1599-2.8901C47.88 36.22 48 35.12 48 34V22c0-8.82-7.18-16-16-16s-16 7.18-16 16v12c0 1.075.1099 2.135.3149 3.165-.44.125-.9049.2551-1.3899.3901-2.675.75-5.71002 1.5999-7.82502 2.6649L6 40.775V60h52V40.715l-1.1851-.5299ZM32 40.59l-4.8-8.68c-.915-1.65-.885-3.61.07-5.235C28.26 25 30.025 24 31.995 24c1.97 0 3.74 1 4.725 2.675.96 1.625.985 3.585.07 5.235L32 40.59ZM54 56H34V45.405l6.3-11.39c1.605-2.905 1.5601-6.3449-.125-9.2049-1.715-2.91-4.77-4.6451-8.175-4.6451-3.405 0-6.46 1.7351-8.175 4.6451-1.685 2.86-1.735 6.2999-.125 9.2049l6.3 11.39V56H10V43.3051c1.75-.705 4.07-1.3551 6.005-1.8951.56-.155 1.095-.305 1.595-.45.745 1.535 1.7399 2.9551 2.9699 4.215l2.8602-2.795C21.2201 40.12 20 37.145 20 34.005v-12c0-6.615 5.385-12 12-12s12 5.385 12 12v12c0 3.14-1.2201 6.115-3.4301 8.375l2.8602 2.795c1.195-1.22 2.1649-2.6 2.9049-4.085 2.515.645 5.395 1.4 7.665 2.265V56Z"/></svg>