<svg width="2443" height="1377" viewBox="0 0 2443 1377" fill="none" xmlns="http://www.w3.org/2000/svg">
<path d="M691.118 14C714.801 14 734 32.5262 734 55.3793V323.31C734 346.164 714.801 364.69 691.118 364.69H672.536V381.931C672.536 404.784 653.337 423.31 629.653 423.31H611.786V438.828C611.786 461.681 592.587 480.207 568.904 480.207H551.036V496.414C551.036 519.267 531.837 537.793 508.154 537.793H492.073V554C492.073 576.853 472.874 595.379 449.191 595.379H429.537V612.621C429.537 635.474 410.338 654 386.654 654H42.8822C19.199 654 -5.06639e-06 635.474 -5.06639e-06 612.621V344.69C-5.06639e-06 321.836 19.199 303.31 42.8822 303.31H62.5365V286.069C62.5365 263.216 81.7355 244.69 105.419 244.69H121.5V228.483C121.5 205.63 140.699 187.103 164.382 187.103H182.249V170.897C182.249 148.043 201.448 129.517 225.131 129.517H242.999V114C242.999 91.1468 262.198 72.6207 285.881 72.6207H304.463V55.3793C304.463 32.5261 323.662 14 347.346 14H691.118Z" fill="#21D789"/>
<path d="M853.274 0H1267.73C1286.1 0 1301 15.6574 1301 34.973V76.9285H1353.25C1371.86 76.9285 1386.95 92.7833 1386.95 112.349V153.857H1438.78C1457.63 153.857 1472.9 169.917 1472.9 189.718V230.786H1524.32C1543.39 230.786 1558.86 247.043 1558.86 267.094V307.722H1609.85C1629.16 307.722 1644.81 324.176 1644.81 344.471V384.65H1695.38C1714.93 384.65 1730.77 401.302 1730.77 421.847V461.586H1780.92C1800.7 461.586 1816.73 478.435 1816.73 499.223V770.363C1816.73 791.151 1800.7 808 1780.92 808H1348.22C1328.44 808 1312.41 791.151 1312.41 770.363V726.988H1265.73C1246.18 726.988 1230.34 710.337 1230.34 689.791V645.969H1183.24C1163.93 645.969 1148.27 629.515 1148.27 609.22V564.957H1100.74C1081.67 564.957 1066.2 548.7 1066.2 528.648V483.938H1018.25C999.405 483.938 984.133 467.878 984.133 448.077V402.926H935.767C917.158 402.926 902.066 387.071 902.066 367.505V321.907H853.274C834.897 321.907 820 306.249 820 286.934V34.973C820 15.6574 834.897 0 853.274 0Z" fill="#21D789"/>
<path fill-rule="evenodd" clip-rule="evenodd" d="M2128.11 259H2406.61C2426.59 259 2442.78 275.202 2442.78 295.187V573.807C2442.78 593.792 2426.59 609.994 2406.61 609.994H2321.66V682.578C2321.66 702.959 2305.15 719.48 2284.78 719.48H2200.55V791.349C2200.55 812.141 2183.7 828.997 2162.92 828.997H2079.43V900.09C2079.43 921.294 2062.25 938.483 2041.05 938.483H1958.31V1008.86C1958.31 1030.48 1940.8 1048 1919.19 1048H1837.19V1117.6C1837.19 1139.63 1819.34 1157.49 1797.33 1157.49H1716.08V1226.34C1716.08 1248.78 1697.89 1266.97 1675.46 1266.97H1594.96V1335.33C1594.96 1358.06 1576.44 1376.49 1553.6 1376.49H1285.47C1262.63 1376.49 1244.12 1358.06 1244.12 1335.33V1068.48C1244.12 1045.75 1262.63 1027.33 1285.47 1027.33H1365.24V956.607C1365.24 934.168 1383.42 915.978 1405.85 915.978H1486.35V846.375C1486.35 824.348 1504.2 806.491 1526.22 806.491H1607.47V736.143C1607.47 714.528 1624.99 697.005 1646.59 697.005H1728.59V625.882C1728.59 604.678 1745.77 587.489 1766.97 587.489H1849.71V515.651C1849.71 494.858 1866.56 478.003 1887.34 478.003H1970.82V405.389C1970.82 385.008 1987.34 368.486 2007.71 368.486H2091.94V295.187C2091.94 275.202 2108.14 259 2128.11 259Z" fill="#6B57FF"/>
</svg>
