<?xml version="1.0" encoding="UTF-8" standalone="no" ?>
<!DOCTYPE svg PUBLIC "-//W3C//DTD SVG 1.1//EN" "http://www.w3.org/Graphics/SVG/1.1/DTD/svg11.dtd">
<svg xmlns="http://www.w3.org/2000/svg" xmlns:xlink="http://www.w3.org/1999/xlink" version="1.1" width="1080" height="1080" viewBox="0 0 1080 1080" xml:space="preserve">
<desc>Created with Fabric.js 5.2.4</desc>
<defs>
</defs>
<g transform="matrix(1 0 0 1 540 540)" id="57db9490-f2a1-47fc-9c58-b763543eb13b"  >
<rect style="stroke: none; stroke-width: 1; stroke-dasharray: none; stroke-linecap: butt; stroke-dashoffset: 0; stroke-linejoin: miter; stroke-miterlimit: 4; fill: rgb(255,255,255); fill-rule: nonzero; opacity: 1; visibility: hidden;" vector-effect="non-scaling-stroke"  x="-540" y="-540" rx="0" ry="0" width="1080" height="1080" />
</g>
<g transform="matrix(1 0 0 1 540 540)" id="b6d41781-16fd-4861-acf2-84e0192ce20e"  >
</g>
<g transform="matrix(1.42 0 0 1 540 451.43)" id="c7381091-a9e2-4c10-a851-28d1ce87484a"  >
<path style="stroke: rgb(0,0,0); stroke-width: 0; stroke-dasharray: none; stroke-linecap: butt; stroke-dashoffset: 0; stroke-linejoin: miter; stroke-miterlimit: 4; fill: rgb(33,215,137); fill-rule: nonzero; opacity: 1;" vector-effect="non-scaling-stroke"  transform=" translate(-375.73, -349.5)" d="M 179.179 0.192871 L 20.582300000000004 0.192871 C 9.214970000000003 0.192871 -0.00006103999999496068 9.41197 -0.00006103999999496068 20.7843 L -0.00006103999999496068 179.451 C -0.00006103999999496068 190.82299999999998 9.214970000000005 200.042 20.582300000000004 200.042 L 68.957 200.042 L 68.957 241.361 C 68.957 252.97199999999998 78.3656 262.385 89.9716 262.385 L 137.927 262.385 L 137.927 303.284 C 137.927 315.127 147.524 324.727 159.362 324.727 L 206.885 324.727 L 206.885 365.21799999999996 C 206.885 377.29299999999995 216.67 387.08199999999994 228.73899999999998 387.08199999999994 L 275.842 387.08199999999994 L 275.842 427.14099999999996 C 275.842 439.448 285.815 449.42499999999995 298.116 449.42499999999995 L 344.813 449.42499999999995 L 344.813 489.05099999999993 C 344.813 501.5969999999999 354.978 511.76699999999994 367.519 511.76699999999994 L 413.771 511.76699999999994 L 413.771 550.986 C 413.771 563.764 424.125 574.122 436.897 574.122 L 482.741 574.122 L 482.741 612.909 C 482.741 625.918 493.282 636.465 506.286 636.465 L 551.698 636.465 L 551.698 674.831 C 551.698 688.073 562.428 698.807 575.664 698.807 L 727.494 698.807 C 740.73 698.807 751.46 688.073 751.46 674.831 L 751.46 522.934 C 751.46 509.69199999999995 740.73 498.95799999999997 727.494 498.95799999999997 L 682.5020000000001 498.95799999999997 L 682.5020000000001 460.171 C 682.5020000000001 447.162 671.96 436.615 658.956 436.615 L 613.532 436.615 L 613.532 397.409 C 613.532 384.631 603.178 374.27299999999997 590.4060000000001 374.27299999999997 L 544.5740000000001 374.27299999999997 L 544.5740000000001 334.63399999999996 C 544.5740000000001 322.08799999999997 534.408 311.91799999999995 521.868 311.91799999999995 L 475.60400000000004 311.91799999999995 L 475.60400000000004 271.8589999999999 C 475.60400000000004 259.5519999999999 465.63100000000003 249.57499999999993 453.33000000000004 249.57499999999993 L 406.6460000000001 249.57499999999993 L 406.6460000000001 209.09699999999992 C 406.6460000000001 197.02199999999993 396.8620000000001 187.23299999999992 384.7920000000001 187.23299999999992 L 337.6890000000001 187.23299999999992 L 337.6890000000001 146.32199999999992 C 337.6890000000001 134.47899999999993 328.0920000000001 124.87799999999991 316.2540000000001 124.87799999999991 L 268.7180000000001 124.87799999999991 L 268.7180000000001 83.55909999999992 C 268.7180000000001 71.94799999999992 259.31000000000006 62.535299999999914 247.70400000000006 62.535299999999914 L 199.76100000000008 62.535299999999914 L 199.76100000000008 20.784299999999917 C 199.76100000000008 9.411969999999917 190.54600000000008 0.19287099999991497 179.1790000000001 0.19287099999991497 z" stroke-linecap="round" />
</g>
</svg>