<svg xmlns="http://www.w3.org/2000/svg" viewBox="0 0 500 500" xmlns:bx="https://boxy-svg.com">
  <defs>
    <bx:export></bx:export>
  </defs>
  <path d="M 255.833 279.585 C 250.901 276.101 242.375 267.683 242.193 267.865 C 237.668 272.048 232.897 275.854 227.913 279.253 C 224.932 281.252 221.904 281.75 220.034 278.794 C 218.629 276.484 219.153 273.276 221.19 271.725 C 221.225 271.705 231.771 263.701 235.289 260.161 C 231.175 254.957 227.899 248.925 225.629 242.365 C 224.725 239.727 225.719 236.722 227.913 235.473 C 230.192 234.356 232.451 234.838 234.342 238.595 C 236.244 243.925 238.896 248.854 242.193 253.168 C 246.68 246.79 249.868 239.309 251.52 231.289 L 218.499 231.178 L 218.499 221.074 L 239.317 221.074 L 239.317 216.07 C 239.273 212.249 242.798 209.806 245.663 211.674 C 247.029 212.561 247.868 214.248 247.847 216.07 L 247.847 221.074 L 270.214 221.074 L 270.214 231.178 L 261.184 231.178 C 258.969 241.585 255.093 251.417 249.764 260.161 C 252.861 263.289 256.193 266.088 259.718 268.523 L 269.712 239.994 C 271.074 235.784 275.85 234.868 278.303 238.353 C 278.661 238.87 278.948 239.45 279.142 240.074 L 292.164 277.273 L 300.198 299.35 L 289.494 299.35 L 284.81 286.567 L 263.868 286.567 L 260.026 299.35 L 248.781 299.35 L 250.023 295.872 L 255.833 279.585 Z M 274.493 253.566 L 267.241 276.499 L 281.738 276.499 L 274.493 253.566 Z" style="fill: rgb(255, 255, 255);"></path>
</svg>